<svg id="Layer_1" data-name="Layer 1" xmlns="http://www.w3.org/2000/svg" viewBox="0 0 512 512"><defs><style>.cls-1{fill:#002532;}.cls-2{fill:#fff;}.cls-3{fill:#fcee21;}</style></defs><title>helper-icon</title><polygon class="cls-1" points="487 25 487 412.08 25 487 25 288.06 25 25 487 25"/><path class="cls-2" d="M162.77,67.84h25.38v49.61H232V67.84h25.3V199.33H232V141.68H188.16v57.65H162.77Z"/><path class="cls-2" d="M287.46,67.84h71.77V92.34H312.31v23.78h46.93v24H312.31v34.59h46.93v24.58H287.46Z"/><path class="cls-2" d="M382.57,67.84h25V175.46h36.47v23.87h-61.5Z"/><path class="cls-2" d="M161.54,234.75h26.55q21.54,0,31.06,4a31.6,31.6,0,0,1,15,12.87q5.5,8.89,5.5,21.32,0,13.77-7.2,22.88a37.32,37.32,0,0,1-19.53,12.69q-7.24,2.06-26.37,2.06v55.69h-25Zm25,51.39h8q9.39,0,13-1.34a11.61,11.61,0,0,0,5.77-4.44,13,13,0,0,0,2.1-7.49q0-7.62-5.9-11.12-4.29-2.6-15.91-2.6h-7.06Z"/><path class="cls-2" d="M264.24,234.75H336v24.49H289.09V283H336v24H289.09v34.59H336v24.58H264.24Z"/><path class="cls-2" d="M361,234.75h26.52q21.78,0,31,3.89a31.79,31.79,0,0,1,14.87,12.92q5.63,9,5.63,21.36,0,13-6.21,21.67t-18.72,13.18l31.15,58.46H417.93l-29.57-55.69h-2.29v55.69H361Zm25,51.39h7.84q11.94,0,16.44-3.14t4.5-10.4a12.73,12.73,0,0,0-2.23-7.49,12.36,12.36,0,0,0-6-4.57q-3.74-1.39-13.72-1.39h-6.86Z"/><path class="cls-3" d="M65.39,431c-.49-5.33-3.23-9.26-6.32-13-11.49-13.85-3.33-33.17,13.41-37.22a24.47,24.47,0,0,1,30,19.88,20.46,20.46,0,0,1-3.71,15.46c-2.61,3.72-5.93,7-7.11,11.61-.11.41-.91.88-1.43.93C82.08,429.47,73.93,430.21,65.39,431Z"/><path class="cls-3" d="M90.64,444.18c.73,2-.12,2.9-1.55,3.66-2.22,1.19-4.38,2.5-6.51,3.85a7.77,7.77,0,0,1-9.22,0c-2.42-1.62-4.91-3.13-8-5.07Z"/><path class="cls-3" d="M90.83,437.88v3.28l-25.06,2.42v-3.33Z"/><path class="cls-3" d="M65.86,437.24c-.7-2.44-.18-3.43,2.27-3.6,6.27-.43,12.53-1.14,18.79-1.72,1.23-.11,2.48-.13,3.86-.19v3.17Z"/></svg>