<svg id="Layer_1" data-name="Layer 1" xmlns="http://www.w3.org/2000/svg" viewBox="0 0 800 800"><defs><style>.cls-1{fill:#a0bf57;}.cls-2{fill:#262626;}</style></defs><title>icon</title><path class="cls-1" d="M58.32,308.32c5.88,30.94,16.5,59.78,36.74,83.68,9.72,11.47,13.29,22.9,12.05,37.17-.73,8.33.16,16.79-.24,25.16-.24,5.16,1,7.46,6.64,6.92,4.79-.47,9.66-.1,14.49-.1q278.14,0,556.28.19c7.57,0,9.25-2.06,9-9.26-.55-17.53,0-35.1-.29-52.64-.09-5.22,1.22-9,5.1-12.7,8.9-8.35,17.21-17.32,26-25.76,7.45-7.13,13.75-14.91,17.5-25.11.11,2,.3,4,.3,6.06q0,156.43,0,312.86c0,29.38-21.13,50.58-50.43,50.58q-291.49,0-583,0c-28.39,0-50.3-20.81-50.33-48.35q-.2-172.84,0-345.67C58.14,310.33,58.26,309.33,58.32,308.32Z"/><path class="cls-2" d="M468.24,436.73h-7.46q-78.2,0-156.4,0c-3.59,0-6.94.16-9.34-3.44-8.13-12.2-20.21-13.24-33.18-11.23-12,1.87-24,4.09-36.08,5.85-28.73,4.2-55.13-2.06-78.65-19-39.76-28.64-61-67.74-64.45-116.53-.71-10.13,3.24-16.77,11-19.77,8.31-3.22,15.23-.82,21.4,5.41,19,19.15,38.2,38,57.06,57.3,3.77,3.85,6.86,4.4,11.89,2.64,21-7.38,42.24-14.36,63.47-21.2,4.26-1.37,6.67-3.26,8.1-7.78q10.39-32.6,21.68-64.92c1.62-4.63.57-7.34-2.69-10.55-19-18.75-37.84-37.68-56.71-56.58-7.61-7.63-9.56-14.82-6.21-22.51s9.8-11.08,20.74-10.72c60.25,2,119.74,48,133.3,103.22,5.15,21,2.51,41.9-1.27,62.76-1.31,7.24-2.51,14.52-3.22,21.84-.91,9.38,1.86,17.16,9.58,23.52,30.21,24.9,60.12,50.16,90.14,75.29C462.92,432.08,464.91,433.85,468.24,436.73Z"/><path class="cls-2" d="M717.55,324.65A20.82,20.82,0,0,1,711,339.59c-18.88,18.89-37.65,37.88-56.68,56.62-9.41,9.27-20.93,9-30.4-.29-13-12.85-25.86-25.93-38.92-38.76-2.57-2.52-2.9-4.07-.87-7.42,5.89-9.69,3.7-20.08-5-27.25-8.26-6.83-16-7-25.22,1.47-14,12.88-27.35,26.58-40.9,40-13,12.88-26.05,25.74-38.85,38.83-2.95,3-4.69,3.13-7.95.36q-33.72-28.63-67.86-56.76c-3.83-3.15-3.53-4.67-.26-7.9q38-37.52,75.68-75.37c25.13-25.13,23.26-50.69-5.19-72a92.12,92.12,0,0,0-36.36-16.73c-6-1.28-9.75-4.24-10-10.57s4-8.64,9.28-10.28c44.83-13.79,85.31-7.33,120.1,25.64,5.07,4.8,10.87,7.64,17.76,7.47,14.47-.35,26,4.92,35.18,16.25a143.55,143.55,0,0,0,16.67,16.74c7.64,6.75,10.65,15.13,10.84,25a51.34,51.34,0,0,0,1.53,12c3.68,13.92,18.29,20.18,30.65,12.77,3.87-2.32,5.48-1.34,8.08,1.29,12.48,12.69,25.1,25.25,37.73,37.8C714.6,313,717.62,318.09,717.55,324.65Z"/><path class="cls-1" d="M461.2,216.92c-26.46,0-51.11,0-75.76,0-2.76,0-4.61-.56-6.07-3.31-28.63-53.64-73.93-83.55-133.3-93.34-.18,0-.3-.39-.8-1.07h8.5q203,0,406-.18c7.39,0,9.27,1.78,9.14,9.15-.48,27.21-.36,54.43-.06,81.65.06,5.69-1.44,7.19-7.16,7.29-7.37.13-12.07-1.78-17.2-7.85-10.64-12.57-22.82-23.9-34.87-35.22-7.88-7.4-18-10.25-28.71-10.7-7.37-.3-13.11-2.77-19-7.74-43.11-36.46-91.72-41.42-143.69-23.13-13.9,4.9-21,18.27-20.06,34.27A32.74,32.74,0,0,0,423,197.06C436.77,200.5,449.41,205.7,461.2,216.92Z"/><path class="cls-1" d="M742,313.11C733.79,292,715,280.37,700.61,265c-5.24-5.6-7.73-10.77-7.67-18.54.37-47.25.14-94.51.21-141.76,0-11.44-1.6-9.78,10.25-9.89,10.67-.09,21.37.42,32-.18,6.56-.37,6.64,2.8,6.63,7.69q-.16,92.6-.07,185.21Q742,300.33,742,313.11Z"/><path class="cls-1" d="M58.13,280c0-31,0-61.17,0-91.37,0-28.72.21-57.45-.16-86.17-.08-6.52,1.91-8.09,8.11-7.82,11.67.5,23.38.27,35.07.08,4-.06,5.93.58,5.91,5.29-.15,47.28-.09,94.56-.11,141.84,0,2.42.56,4.73-3.48,5.27C74.77,251,69.51,254.89,58.13,280Z"/><path class="cls-1" d="M221.29,216.92c-28.19,0-56.38-.09-84.56.1-4.58,0-5.42-1.73-5.4-5.8q.21-43.05,0-86.11c0-3.86.42-6,5.23-6,27.17.21,54.35.1,81.74.5-10.69,3.82-19.85,9.4-26,19.26-10.36,16.6-8.53,37.84,5.2,52,8.08,8.32,16.7,16.12,25.07,24.16Z"/></svg>